IKResults
version=1
nRows=14
nColumns=40
inDegrees=yes

Units are S.I. units (second, meters, Newtons, ...)
Angles are in degrees.

endheader
time	pelvis_tilt	pelvis_list	pelvis_rotation	pelvis_tx	pelvis_ty	pelvis_tz	hip_flexion_r	hip_adduction_r	hip_rotation_r	knee_angle_r	knee_angle_r_beta	ankle_angle_r	subtalar_angle_r	mtp_angle_r	hip_flexion_l	hip_adduction_l	hip_rotation_l	knee_angle_l	knee_angle_l_beta	ankle_angle_l	subtalar_angle_l	mtp_angle_l	lumbar_extension	lumbar_bending	lumbar_rotation	arm_flex_r	arm_add_r	arm_rot_r	elbow_flex_r	pro_sup_r	wrist_flex_r	wrist_dev_r	arm_flex_l	arm_add_l	arm_rot_l	elbow_flex_l	pro_sup_l	wrist_flex_l	wrist_dev_l
      0.98000000	     14.26108678	      3.04296392	     -5.45990109	      0.07404558	      0.92317256	     -1.01089130	    -28.93068011	     -5.54624449	     -5.97499744	    -31.81407784	     -0.55526041	     -3.47095056	     -5.75649729	     -2.79909588	      5.70968585	     -0.99366338	     22.92981355	    -20.54768105	     -0.35862469	      0.03103473	     -2.44758919	     -5.89243730	    -18.81821741	     -6.82060165	      5.22304933	     -3.31769159	    -10.08512125	     -0.36549438	     23.28585710	     89.95437384	      0.00000000	      0.00000000	     -9.54798589	      8.63135797	      5.36683303	     15.90218345	     89.95437384	      0.00000000	      0.00000000
      0.99000000	     14.64748196	      3.39320009	     -5.28915482	      0.08706475	      0.92589506	     -1.01222398	    -28.70666165	     -5.76403230	     -5.60589660	    -33.76156451	     -0.58925046	     -6.49872784	     -8.64016891	     -0.84740631	      4.41798608	     -1.95504198	     21.14538956	    -20.25259961	     -0.35347455	      0.43731689	     -1.05702972	     -6.01953887	    -19.00673849	     -7.18681917	      4.79453939	     -3.64293224	     -9.83319856	     -0.58876777	     22.34404742	     89.95437384	      0.00000000	      0.00000000	     -9.17731936	      8.81591507	      5.46020361	     15.97892125	     89.95437384	      0.00000000	      0.00000000
      1.00000000	     15.05709946	      3.55065707	     -5.04056641	      0.09975837	      0.92879444	     -1.01373499	    -28.24311932	     -5.86571944	     -5.54664354	    -36.01741041	     -0.62862240	     -9.13049259	    -10.03422269	      2.99942956	      3.01230853	     -2.78906120	     19.04447878	    -19.86495231	     -0.34670882	      1.36825169	      0.97489788	     -6.25950606	    -19.31044926	     -7.29552582	      4.38237314	     -3.90765831	     -9.69714724	     -0.57048125	     21.33256470	     89.95437384	      0.00000000	      0.00000000	     -8.62512506	      8.94029154	      5.43678746	     15.99261005	     89.95437384	      0.00000000	      0.00000000
      1.01000000	     15.49482019	      3.69898110	     -4.94282192	      0.11236152	      0.93156820	     -1.01529263	    -27.54026875	     -6.15902001	     -5.68736535	    -38.48856489	     -0.67175218	    -12.16558581	    -11.47293378	      5.24566531	      1.52701860	     -3.37332380	     18.26789263	    -19.46318896	     -0.33969673	      1.74815956	      1.16565512	     -6.29882094	    -19.66240158	     -7.40205308	      4.08960020	     -4.26636744	     -9.64869959	     -0.54086113	     20.61026883	     89.95437384	      0.00000000	      0.00000000	     -8.14270443	      9.07158704	      5.29735762	     16.25600721	     89.95437384	      0.00000000	      0.00000000
      1.02000000	     15.77661515	      3.58321309	     -4.78044968	      0.12474320	      0.93397900	     -1.01676831	    -26.50763931	     -6.20086545	     -5.78973620	    -41.00124918	     -0.71560680	    -15.11192265	    -11.90876259	      6.15910274	      0.21518690	     -3.53208273	     17.98564662	    -19.19263717	     -0.33497471	      2.41819490	      0.91176081	     -6.30644377	    -19.88831869	     -7.19732459	      3.82419121	     -4.59181920	     -9.63906768	     -0.43188117	     19.88778594	     89.95437384	      0.00000000	      0.00000000	     -7.63943448	      9.17204826	      5.16687599	     16.51992761	     89.95437384	      0.00000000	      0.00000000
      1.03000000	     16.10937825	      3.54970735	     -4.58668821	      0.13651443	      0.93649785	     -1.01849362	    -25.30678605	     -6.17701080	     -5.72426742	    -43.70591564	     -0.76281213	    -16.91345263	    -13.08412149	     18.55930102	     -1.31752527	     -4.01615130	     16.81245249	    -18.41156997	     -0.32134252	      3.02413767	      2.22867082	     -6.16611208	    -20.28855599	     -7.03607559	      3.52136924	     -4.87794100	     -9.69951155	     -0.24434896	     19.30025719	     89.95437384	      0.00000000	      0.00000000	     -7.00812643	      9.27668067	      4.89536836	     16.93988989	     89.95437384	      0.00000000	      0.00000000
      1.04000000	     16.38333153	      3.34202065	     -4.59304130	      0.14831806	      0.93864175	     -1.01979500	    -24.00988796	     -6.12295591	     -5.52143467	    -46.12507806	     -0.80503448	    -19.58852807	    -13.76096359	     18.93389215	     -2.73438490	     -4.02968039	     16.93881193	    -17.88093069	     -0.31208111	      3.56571811	      1.64940028	     -6.20314536	    -20.57339865	     -6.74960264	      3.42054961	     -5.14031899	     -9.77227350	     -0.14881538	     18.74513543	     89.95437384	      0.00000000	      0.00000000	     -6.36512730	      9.34736882	      4.79086024	     17.27617639	     89.95437384	      0.00000000	      0.00000000
      1.05000000	     16.85079917	      3.04313586	     -4.24012342	      0.15963490	      0.94089000	     -1.02162865	    -23.00506331	     -5.85630413	     -5.64942303	    -48.39759255	     -0.84469734	    -20.55940880	    -14.21658658	     18.92901956	     -4.17466570	     -3.84942840	     17.15382447	    -17.70960112	     -0.30909085	      3.90844291	      1.45885153	     -6.16813885	    -21.22524043	     -6.23727178	      2.93575932	     -5.38387225	     -9.87088485	     -0.04398170	     18.42006947	     89.95437384	      0.00000000	      0.00000000	     -5.67129714	      9.41741693	      4.67172644	     17.75161121	     89.95437384	      0.00000000	      0.00000000
      1.06000000	     16.93959673	      3.00741571	     -4.59364514	      0.17090384	      0.94239385	     -1.02264849	    -21.31583987	     -6.00646396	     -5.16767327	    -50.76766171	     -0.88606285	    -21.36173161	    -16.88598829	     19.52176578	     -5.52502036	     -4.14765048	     17.18863902	    -16.83619701	     -0.29384707	      4.56040054	      0.76321253	     -6.21657609	    -21.30665830	     -6.20764963	      3.09379159	     -5.54006941	     -9.98038400	      0.21831230	     17.77142672	     89.95437384	      0.00000000	      0.00000000	     -5.09397770	      9.50622308	      4.41044041	     18.46981867	     89.95437384	      0.00000000	      0.00000000
      1.07000000	     17.15943248	      2.77456279	     -4.51924181	      0.18202653	      0.94396517	     -1.02385997	    -20.01400657	     -5.82075742	     -5.12687305	    -52.79031176	     -0.92136475	    -19.56337178	    -17.84613164	     19.53466384	     -6.77593400	     -4.05024981	     17.42417708	    -16.47861227	     -0.28760604	      4.90240985	      0.42942093	     -6.14439185	    -21.62841130	     -5.86479115	      2.83475990	     -5.74581205	    -10.05766858	      0.17195299	     17.50106893	     89.95437384	      0.00000000	      0.00000000	     -4.44982122	      9.66391225	      4.10952530	     19.11181965	     89.95437384	      0.00000000	      0.00000000
      1.08000000	     17.35079825	      2.57905133	     -4.45899702	      0.19283279	      0.94539405	     -1.02495395	    -18.66945865	     -5.68068146	     -5.04753816	    -54.57559985	     -0.95252391	    -17.15756021	    -18.07794971	     19.53532472	     -8.00199973	     -4.00060144	     17.54347475	    -16.01532073	     -0.27952008	      5.30423251	     -0.01198735	     -6.07762960	    -21.92705062	     -5.57480936	      2.58027031	     -5.91953404	    -10.12772379	      0.53682047	     17.14413879	     89.95437384	      0.00000000	      0.00000000	     -3.68392361	      9.86257423	      3.69841085	     19.66326174	     89.95437384	      0.00000000	      0.00000000
      1.09000000	     17.56099700	      2.32507098	     -4.35184338	      0.20336298	      0.94674357	     -1.02604562	    -17.32237352	     -5.43664760	     -4.91955942	    -56.09708717	     -0.97907887	    -14.79847783	    -18.14324053	     19.44155150	     -9.19775631	     -3.88342670	     17.49227562	    -15.60660009	     -0.27238656	      5.67529302	     -0.37814300	     -6.02092708	    -22.27117364	     -5.20982097	      2.28410900	     -6.00116590	    -10.20312858	      0.65904518	     16.72015715	     89.95437384	      0.00000000	      0.00000000	     -2.93056687	     10.05396151	      3.43712871	     20.37335206	     89.95437384	      0.00000000	      0.00000000
      1.10000000	     17.76830112	      2.07203126	     -4.12737972	      0.21392100	      0.94806297	     -1.02710263	    -16.03886706	     -5.05638186	     -4.77155906	    -57.27099648	     -0.99956745	    -12.82228948	    -18.00886683	     19.41872318	    -10.38849883	     -3.72737937	     17.38863589	    -15.18007487	     -0.26494229	      5.97996604	     -0.71712618	     -5.98270166	    -22.60411678	     -4.83858524	      1.85746969	     -6.05947274	    -10.22744358	      0.71287600	     16.34184283	     89.95437384	      0.00000000	      0.00000000	     -2.15889835	     10.31227426	      2.92887079	     20.96911380	     89.95437384	      0.00000000	      0.00000000
      1.11000000	     18.05392690	      1.84011779	     -3.87852254	      0.22442856	      0.94937737	     -1.02816491	    -14.86388725	     -4.68869214	     -4.66857613	    -58.19175649	     -1.01563775	    -10.69018775	    -17.65842119	     20.78003521	    -11.67943912	     -3.62348916	     17.12697958	    -14.68861859	     -0.25636476	      6.19963500	     -0.75385959	     -5.89204649	    -23.00458662	     -4.48006811	      1.49922723	     -6.19445990	    -10.19711097	      0.28189325	     16.04106877	     89.95437384	      0.00000000	      0.00000000	     -1.38568695	     10.74595663	      1.68311606	     21.76944911	     89.95437384	      0.00000000	      0.00000000
